# xmcd
# 
# Track frame offsets:
#	150
#	18622
#	32055
#	47807
#	62960
#	80635
#	97467
#	120112
#	136900
#	159335
#	172662
#	184140
#
# Disc length: 2678 seconds
#
# Revision: 1
# Processed by: cddbd v1.4PL0 Copyright (c) Steve Scherf et al.
# Submitted via: Audio-CD-Archiv 2.10.440
#
DISCID=9b0a740c
DTITLE=Michael Civisca - A Collection Of Great Standards
DYEAR=1900
DGENRE=blues
TTITLE0=Nevertheless
TTITLE1=Where Are You
TTITLE2=Under A Blanket Of Blue
TTITLE3=When Your Lover Has Gone
TTITLE4=Too Young
TTITLE5=Moonglow
TTITLE6=Reminiscing
TTITLE7=Not For Me
TTITLE8=These Foolish Things
TTITLE9=Take It Slow
TTITLE10=Because Of You
TTITLE11=Smile
EXTD=
EXTT0=
EXTT1=
EXTT2=
EXTT3=
EXTT4=
EXTT5=
EXTT6=
EXTT7=
EXTT8=
EXTT9=
EXTT10=
EXTT11=
PLAYORDER=
